<?xml version="1.0" encoding="iso-8859-1"?>
<!-- Uploaded to: SVG Repo, www.svgrepo.com, Generator: SVG Repo Mixer Tools -->
<!DOCTYPE svg PUBLIC "-//W3C//DTD SVG 1.1//EN" "http://www.w3.org/Graphics/SVG/1.1/DTD/svg11.dtd">
<svg fill="#000000" height="800px" width="800px" version="1.1" id="Capa_1" xmlns="http://www.w3.org/2000/svg" xmlns:xlink="http://www.w3.org/1999/xlink" 
	 viewBox="0 0 486.26 486.26" xml:space="preserve">
<path d="M486.26,227.803c0-22.759-16.865-41.647-38.753-44.839c-5.263-16.637-20.733-28.221-38.637-28.221H77.39
	c-10.827,0-21.005,4.215-28.66,11.869c-4.629,4.629-8.012,10.206-9.963,16.341c-9.614,1.385-18.495,5.807-25.501,12.803
	C4.712,204.324,0,215.705,0,227.803c0,23.103,17.381,42.21,39.759,44.966c9.35,33.828,40.383,58.747,77.144,58.747h252.455
	c36.76,0,67.791-24.917,77.143-58.742c9.994-1.216,19.247-5.689,26.492-12.925C481.548,251.283,486.26,239.902,486.26,227.803z
	 M77.39,168.744h331.48c9.934,0,18.706,5.454,23.252,13.739H54.151c1.197-2.167,2.689-4.18,4.479-5.97
	C63.64,171.503,70.303,168.744,77.39,168.744z M369.358,317.516h-31.329c-4.895-8.269-8.316-17.228-10.169-26.688
	c-0.743-3.794-4.421-6.266-8.215-5.523c-3.794,0.743-6.267,4.421-5.524,8.215c1.64,8.371,4.351,16.396,8.045,23.997h-64.567
	c-4.898-8.273-8.314-17.229-10.158-26.683c-0.74-3.794-4.421-6.274-8.21-5.53c-3.794,0.739-6.271,4.415-5.531,8.21
	c1.632,8.37,4.341,16.397,8.037,24.003h-64.577c-4.897-8.272-8.314-17.229-10.158-26.683c-0.74-3.794-4.415-6.274-8.211-5.53
	c-3.794,0.74-6.271,4.416-5.53,8.21c1.633,8.37,4.341,16.397,8.037,24.003h-44.393c-36.416,0-66.043-29.626-66.043-66.042
	c0-14.627,11.9-26.527,26.527-26.527h331.487c14.627,0,26.527,11.9,26.527,26.527C435.401,287.89,405.774,317.516,369.358,317.516z
	 M463.094,249.95c-3.942,3.937-8.748,6.689-13.985,8.094c0.177-2.169,0.292-4.356,0.292-6.57c0-22.347-18.18-40.527-40.527-40.527
	H77.387c-22.347,0-40.527,18.181-40.527,40.527c0,2.211,0.114,4.395,0.291,6.562C23.831,254.433,14,242.248,14,227.803
	c0-8.362,3.258-16.229,9.167-22.146c5.924-5.916,13.792-9.174,22.154-9.174h395.62c17.27,0,31.32,14.05,31.32,31.32
	C472.26,236.166,469.002,244.033,463.094,249.95z"/>
</svg>