<?xml version="1.0" encoding="iso-8859-1"?>
<!-- Uploaded to: SVG Repo, www.svgrepo.com, Generator: SVG Repo Mixer Tools -->
<!DOCTYPE svg PUBLIC "-//W3C//DTD SVG 1.1//EN" "http://www.w3.org/Graphics/SVG/1.1/DTD/svg11.dtd">
<svg fill="#000000" height="800px" width="800px" version="1.1" id="Capa_1" xmlns="http://www.w3.org/2000/svg" xmlns:xlink="http://www.w3.org/1999/xlink" 
	 viewBox="0 0 468.379 468.379" xml:space="preserve">
<path d="M450.379,276.891c9.925,0,18-8.075,18-18c0-8.935-6.552-16.35-15.099-17.744v-19.322c0-2.657-1.504-5.085-3.883-6.268
	c-2.38-1.182-5.224-0.917-7.342,0.687c-4.653,3.522-9.961,5.788-15.458,6.812v-11.069h19.092c3.866,0,7-3.134,7-7
	c0-22.463-23.685-42.896-66.691-57.536c-40.654-13.839-94.568-21.46-151.809-21.46c-57.241,0-111.155,7.622-151.809,21.46
	c-43.006,14.64-66.691,35.073-66.691,57.536c0,3.866,3.134,7,7,7h19.092v11.069c-5.497-1.024-10.805-3.291-15.458-6.813
	c-2.119-1.604-4.962-1.87-7.341-0.687c-2.379,1.183-3.883,3.611-3.883,6.268v19.322C6.552,242.541,0,249.956,0,258.891
	c0,9.925,8.075,18,18,18h6.719v8H22.69c-3.866,0-7,3.134-7,7c0,27.845,22.653,50.498,50.498,50.498h336.004
	c27.845,0,50.498-22.653,50.498-50.498c0-3.866-3.134-7-7-7h-2.029v-8H450.379z M86.893,160.704
	c15.844-5.394,33.822-9.807,53.295-13.155l28.962,28.962c1.367,1.367,3.158,2.05,4.95,2.05s3.583-0.684,4.95-2.05
	c2.734-2.734,2.734-7.166,0-9.899l-21.683-21.683c16.527-2.221,33.924-3.717,51.853-4.438l36.01,36.019
	c1.367,1.367,3.158,2.051,4.95,2.051c1.791,0,3.582-0.683,4.949-2.05c2.734-2.733,2.734-7.166,0.001-9.899l-26.588-26.595
	c1.879-0.017,3.762-0.027,5.649-0.027c18.105,0,35.844,0.781,52.895,2.286l34.234,34.235c1.367,1.367,3.158,2.05,4.95,2.05
	c1.791,0,3.583-0.684,4.95-2.05c2.733-2.733,2.733-7.166,0-9.899l-21.914-21.915c26.788,3.506,51.331,8.909,72.182,16.007
	c30.981,10.546,50.703,23.828,55.854,37.283H31.038C36.19,184.532,55.911,171.25,86.893,160.704z M412.598,211.987v11.008
	c-5.376-1.054-10.56-3.302-15.116-6.751c-2.498-1.892-5.951-1.892-8.449,0c-13.122,9.932-31.449,9.933-44.573,0
	c-2.498-1.892-5.951-1.892-8.449,0c-13.121,9.933-31.45,9.932-44.573,0c-2.498-1.892-5.951-1.892-8.449,0
	c-13.12,9.932-31.45,9.933-44.574,0c-2.498-1.892-5.95-1.892-8.449,0c-13.122,9.933-31.451,9.933-44.573,0
	c-2.499-1.892-5.95-1.892-8.449,0c-13.122,9.933-31.451,9.933-44.573,0c-2.499-1.892-5.95-1.892-8.449,0
	c-13.122,9.933-31.452,9.933-44.574,0c-2.499-1.892-5.95-1.892-8.449,0c-4.556,3.449-9.74,5.697-15.115,6.751v-11.008H412.598z
	 M75.122,230.28c16.21,9.864,36.812,9.865,53.023,0c16.21,9.865,36.813,9.865,53.022,0c16.209,9.865,36.813,9.865,53.023,0
	c16.21,9.866,36.813,9.865,53.022,0c16.21,9.865,36.811,9.866,53.022,0c16.212,9.866,36.813,9.865,53.022,0
	c13.955,8.492,31.162,9.675,46.023,3.546v7.065H29.099v-7.065C43.957,239.954,61.167,238.772,75.122,230.28z M14,258.891
	c0-2.206,1.794-4,4-4h432.379c2.206,0,4,1.794,4,4s-1.794,4-4,4H18C15.794,262.891,14,261.097,14,258.891z M311.099,284.891v-8h61v8
	H311.099z M168.099,276.891v8h-89v-8H168.099z M182.099,276.891h23v8h-23V276.891z M219.099,276.891h78v8h-78V276.891z
	 M38.719,276.891h26.38v8h-26.38V276.891z M402.192,328.389H66.188c-17.731,0-32.549-12.711-35.824-29.498h407.653
	C434.742,315.678,419.923,328.389,402.192,328.389z M429.661,284.891h-43.562v-8h43.562V284.891z"/>
</svg>