<svg xmlns="http://www.w3.org/2000/svg" width="512" height="512" viewBox="0 0 512 512" version="1.1">
	<path d="M 245.172 48.954 C 239.265 53.022, 237.036 54.003, 233.672 54.015 C 228.414 54.033, 224.861 55.805, 223.221 59.227 C 222.106 61.551, 222.254 62.665, 224.370 67.872 C 225.706 71.160, 227.098 75.620, 227.463 77.783 L 228.128 81.717 218.378 82.432 C 199.546 83.815, 174.008 92.316, 155.354 103.412 C 131.756 117.449, 112.031 137.334, 98.723 160.500 C 90.504 174.808, 83.871 194.678, 82.440 209.281 C 81.468 219.196, 81.461 219.192, 100.841 219.053 L 117.084 218.937 115.543 221.917 C 113.662 225.555, 109.898 228.450, 99.655 234.139 C 95.340 236.535, 89.828 240.615, 87.405 243.205 C 83.730 247.133, 83 248.572, 83 251.880 C 83 254.946, 83.675 256.521, 85.974 258.820 C 89.328 262.174, 96.586 264.992, 101.928 265.015 C 108.679 265.044, 109.065 266.571, 103.500 271.231 C 92.255 280.647, 85.958 289.236, 84.489 297.164 C 83.601 301.951, 85.490 303, 95.001 303 L 102.133 303 97.280 307.750 C 92.063 312.856, 88.742 318.939, 86.953 326.661 C 86.336 329.322, 83.995 337.458, 81.750 344.739 C 78.273 356.018, 77.842 358.358, 78.837 360.541 C 80.565 364.335, 86.234 366.345, 93.035 365.576 L 98.633 364.942 101.275 375.616 C 105.621 393.182, 113.017 406.620, 125.787 420.157 C 142.343 437.707, 170.088 453.154, 195.489 458.961 C 212.886 462.939, 220.524 463.500, 257 463.484 C 289.339 463.470, 293.602 463.270, 304.871 461.235 C 359.884 451.302, 401.145 415.825, 409.343 371.409 L 410.602 364.584 419.596 364.868 C 427.246 365.111, 428.944 364.866, 430.962 363.231 C 434.051 360.731, 433.913 356.643, 430.430 347.472 C 428.974 343.637, 426.257 335.184, 424.392 328.686 C 419.725 312.421, 416.522 306.987, 410.411 304.971 C 405.127 303.227, 407.358 301.970, 415.316 302.207 C 423.633 302.455, 425.008 301.883, 424.978 298.191 C 424.920 291.116, 415.871 279.472, 403.196 270.165 C 396.146 264.987, 395.753 265.744, 407.140 262.577 C 414.283 260.590, 419 256.403, 419 252.049 C 419 245.167, 414.853 240.773, 401.263 233.255 C 391.903 228.077, 386 223.195, 386 220.632 C 386 219.179, 388.118 219, 405.309 219 C 429.761 219, 428.897 219.460, 427.162 207.356 C 424.671 189.987, 415.506 167.848, 403.192 149.458 C 377.930 111.728, 334.668 85.613, 292.105 82.400 L 283 81.713 283.018 75.607 C 283.033 70.498, 283.524 68.781, 286.018 65.100 C 290.724 58.155, 289.992 56.827, 280.500 55.081 C 276.672 54.377, 271.652 52.323, 266.632 49.407 C 255.398 42.881, 254.033 42.852, 245.172 48.954 M 249.659 54.585 C 245.618 57.331, 239.900 59.445, 233.750 60.467 C 229.573 61.162, 229.139 62.434, 231.513 67.025 C 232.345 68.633, 233.302 72.594, 233.640 75.827 L 234.254 81.703 241.804 83.342 C 245.956 84.243, 249.571 84.762, 249.837 84.496 C 250.103 84.230, 249.509 83.114, 248.516 82.017 C 246.743 80.059, 246.819 79.974, 252.605 77.413 C 268.605 70.331, 273.766 67.622, 276.750 64.743 C 278.538 63.019, 280 61.303, 280 60.932 C 280 60.560, 278.095 59.951, 275.767 59.579 C 273.439 59.207, 268.095 57.349, 263.891 55.451 C 259.688 53.553, 255.622 52, 254.856 52 C 254.091 52, 251.752 53.163, 249.659 54.585 M 267.834 76.958 C 259.380 80.618, 256 82.836, 256 84.722 C 256 85.543, 256.563 86.001, 257.250 85.741 C 257.938 85.481, 262.663 84.467, 267.750 83.488 L 277 81.707 277 77.853 C 277 73.213, 276.578 73.172, 267.834 76.958 M 211.909 105.488 C 176.811 112.149, 141.538 139.377, 124.533 172.935 C 121.379 179.159, 114.557 199.469, 113.536 205.675 C 112.967 209.134, 113.205 210.205, 114.925 211.925 L 117 214 255.309 214 C 370.366 214, 393.931 213.771, 395.478 212.640 C 398.218 210.636, 397.629 204.633, 393.476 192.221 C 386.348 170.919, 377.108 155.919, 361.585 140.450 C 345.649 124.568, 327.334 113.428, 307.071 107.292 C 295.664 103.838, 276.632 103.460, 264.739 106.453 C 257.150 108.363, 256.785 108.366, 248.239 106.586 C 236.507 104.143, 221.402 103.686, 211.909 105.488 M 311.276 228.087 C 293.308 239.766, 280.704 247, 278.322 247 C 275.057 247, 271.873 245.278, 255.583 234.702 C 247.929 229.733, 241.157 225.667, 240.535 225.667 C 239.913 225.667, 236.050 227.924, 231.952 230.683 C 220.767 238.213, 206.794 246.663, 204.219 247.454 C 201.365 248.330, 196.949 245.830, 179.297 233.341 C 172.036 228.203, 165.451 224, 164.664 224 C 163.877 224, 154.068 229.512, 142.867 236.250 L 122.500 248.500 114.500 248.500 C 106.668 248.500, 106.500 248.552, 106.500 250.960 C 106.500 255.605, 115.744 259.984, 125.573 259.994 C 130.824 260, 139.823 256.197, 154.846 247.622 C 158.336 245.630, 161.849 244, 162.651 244 C 163.453 244, 166.673 245.726, 169.805 247.836 C 195.448 265.108, 200.840 265.525, 227.135 252.268 L 241.874 244.838 249.109 249.063 C 260.230 255.559, 270.600 260.047, 275.950 260.680 C 282.839 261.496, 291.863 258.437, 307.441 250.005 C 314.559 246.152, 320.859 243.002, 321.441 243.004 C 322.023 243.007, 329.498 246.543, 338.052 250.863 C 355.457 259.652, 362.245 261.506, 371.506 259.999 C 378.007 258.941, 388.143 254.605, 390.688 251.793 C 392.425 249.873, 392.395 249.736, 389.737 247.450 C 385.439 243.754, 380.579 243.310, 373.232 245.945 C 369.119 247.420, 366.004 247.967, 364.236 247.523 C 362.749 247.150, 353.200 241.768, 343.016 235.564 C 332.832 229.360, 323.580 223.804, 322.455 223.217 C 320.728 222.315, 318.991 223.072, 311.276 228.087 M 374.113 271.055 C 368.400 272.630, 359.400 274.383, 354.113 274.951 C 348.826 275.519, 340.148 276.437, 334.830 276.992 C 322.415 278.286, 300.352 278.274, 292 276.969 C 288.425 276.410, 280.725 274.612, 274.889 272.972 L 264.278 269.990 254.889 272.877 C 240.847 277.193, 229.585 278.411, 210.684 277.655 C 201.783 277.300, 190.941 276.357, 186.592 275.560 C 180.858 274.510, 177.315 274.371, 173.705 275.056 C 162.239 277.230, 143.166 275.804, 126.771 271.545 L 117.947 269.254 115.224 271.324 C 108.502 276.435, 98.412 285.839, 95.829 289.400 C 91.445 295.444, 91.852 296, 100.660 296 L 108.319 296 114.085 301.500 C 118.810 306.007, 120.479 307, 123.329 307 C 126.710 307, 140.373 302.619, 152.460 297.661 L 158.420 295.215 169.960 301.358 L 181.500 307.500 191 307.490 C 200.964 307.479, 200.710 307.547, 226.633 297.955 L 232.765 295.686 245.133 300.756 C 261.604 307.509, 267.762 308.689, 275.797 306.630 C 279.161 305.769, 285.974 303.024, 290.937 300.532 C 295.900 298.039, 300.659 296, 301.513 296 C 302.368 296, 305.307 297.136, 308.046 298.523 C 316.992 303.056, 330.345 307, 336.748 307 C 345.279 307, 350.146 304.945, 361.568 296.523 C 363.471 295.120, 364.477 295.315, 374.152 298.960 C 379.935 301.140, 386.546 303.224, 388.842 303.591 C 392.799 304.223, 393.275 304.017, 397.965 299.629 C 402.808 295.100, 403.055 295, 409.457 295 C 413.056 295, 416 294.586, 416 294.081 C 416 290.636, 390.220 267.919, 386.511 268.096 C 385.405 268.148, 379.826 269.480, 374.113 271.055 M 101.693 322.787 C 99.353 325.372, 97.504 330.231, 94.581 341.478 C 91.602 352.941, 91.355 356.815, 93.551 357.658 C 94.432 357.996, 100.402 355.563, 107.389 352.017 C 119.633 345.803, 119.687 345.787, 122.827 347.411 C 124.560 348.307, 128.238 351.047, 131 353.500 C 141.338 362.682, 146.550 363.386, 160.591 357.502 C 165.491 355.449, 171.399 353.042, 173.719 352.153 L 177.938 350.538 188.219 355.693 C 193.874 358.528, 199.942 361.138, 201.705 361.493 C 205.844 362.327, 215.246 359.904, 225.057 355.474 C 229.289 353.563, 233.308 352, 233.988 352 C 234.668 352, 239.194 353.987, 244.044 356.415 C 260.544 364.675, 268.602 364.465, 283.720 355.383 C 287.999 352.813, 291.765 350.568, 292.089 350.396 C 292.412 350.223, 297.328 352.297, 303.012 355.006 C 321.151 363.649, 325.841 363.700, 340.088 355.413 C 344.261 352.986, 348.168 351, 348.770 351 C 349.371 351, 354.024 353.025, 359.109 355.500 C 372.800 362.164, 376.970 361.536, 385.522 351.526 C 388.551 347.980, 391.019 346, 392.408 346 C 393.599 346, 399.506 348.474, 405.536 351.498 C 415.861 356.676, 420 358.026, 420 356.218 C 420 354.362, 412.714 330.341, 411.307 327.561 C 409.307 323.607, 407 321, 405.500 321 C 404.846 321, 397.847 326.677, 389.946 333.617 C 382.046 340.556, 374.571 346.694, 373.336 347.257 C 370.669 348.472, 367.687 347.409, 357.723 341.687 C 349.475 336.951, 348.676 337.073, 337.155 344.819 C 329.369 350.053, 328.262 350.500, 323.076 350.500 C 318.029 350.500, 316.295 349.854, 306.287 344.250 C 300.149 340.813, 294.086 338.007, 292.813 338.016 C 291.541 338.025, 286.082 340.935, 280.682 344.483 C 266.360 353.895, 262.486 354.135, 249.938 346.388 C 245.847 343.863, 240.734 340.893, 238.576 339.789 L 234.652 337.782 222.576 344.086 C 212.135 349.537, 209.754 350.398, 204.994 350.445 C 200.073 350.494, 198.544 349.934, 190.582 345.161 C 185.683 342.224, 180.285 339.601, 178.587 339.330 C 176.206 338.952, 172.709 340.230, 163.300 344.920 C 155.478 348.818, 149.864 351, 147.659 351 C 143.812 351, 141.770 349.672, 123.065 335 C 108.931 323.914, 104.964 321, 104.007 321 C 103.624 321, 102.582 321.804, 101.693 322.787 M 107.223 336.661 C 103.810 338.343, 98.527 343.860, 99.447 344.780 C 99.989 345.322, 114 336.380, 114 335.492 C 114 334.478, 110.387 335.101, 107.223 336.661 M 398.066 335.750 C 398.155 336.755, 411.188 345.145, 411.765 344.568 C 412.779 343.555, 407.478 337.680, 404.383 336.387 C 400.736 334.863, 397.963 334.583, 398.066 335.750 M 378.671 374.817 C 377.666 375.015, 373.219 377.378, 368.791 380.068 C 358.724 386.182, 356.236 386.661, 348 384.070 C 344.425 382.946, 340.325 382.020, 338.890 382.013 C 336.257 382, 330.614 385.273, 326 389.488 C 322.939 392.284, 317.725 394.988, 315.300 395.036 C 314.310 395.055, 308.457 392.486, 302.293 389.326 L 291.086 383.581 287.293 386.806 C 280.135 392.894, 276.033 395.242, 271.768 395.694 C 268.184 396.075, 266.559 395.575, 261.629 392.574 C 258.400 390.608, 255.250 389.003, 254.629 389.007 C 254.008 389.010, 252.150 389.929, 250.500 391.049 C 246.140 394.009, 241.144 396, 238.079 396 C 235.562 396, 233.107 394.625, 223.099 387.609 L 218.974 384.717 213.737 388.051 C 205.328 393.403, 199.854 396, 196.979 396 C 194.323 396, 192.111 394.559, 181.888 386.167 C 177.052 382.196, 176.228 381.869, 172.055 382.256 C 169.550 382.488, 164.575 383.487, 161 384.476 C 152.959 386.699, 149.666 385.961, 139 379.545 C 127.722 372.761, 126.452 373.371, 129.596 384.068 C 135.503 404.164, 154.823 425.839, 175.500 435.568 C 193.538 444.055, 207.803 444.176, 224.036 435.982 L 230.058 432.942 233.279 435.333 C 243.007 442.553, 256.262 441.183, 266.411 431.907 L 271.557 427.204 278.837 432.091 C 288.142 438.337, 297.777 441.359, 308.500 441.393 C 318.854 441.426, 325.428 439.803, 336.500 434.480 C 351.163 427.431, 364.173 415.184, 373.289 399.850 C 380.023 388.524, 383.160 373.932, 378.671 374.817" stroke="none" fill="black" fill-rule="evenodd"/>
</svg>